<mxfile host="app.diagrams.net" modified="2023-08-25T17:07:30.805Z" agent="Mozilla/5.0 (X11; Linux x86_64; rv:103.0) Gecko/20100101 Firefox/103.0" etag="474h9CnNLTLm9Rfm2xqk" version="21.6.9" type="github">
  <diagram id="R2lEEEUBdFMjLlhIrx00" name="Page-1">
    <mxGraphModel dx="2284" dy="679" grid="1" gridSize="10" guides="1" tooltips="1" connect="1" arrows="1" fold="1" page="1" pageScale="1" pageWidth="850" pageHeight="1100" math="0" shadow="0" extFonts="Permanent Marker^https://fonts.googleapis.com/css?family=Permanent+Marker">
      <root>
        <mxCell id="0" />
        <mxCell id="1" parent="0" />
        <mxCell id="HhZmvRGosrXur675bvMr-3" style="edgeStyle=orthogonalEdgeStyle;rounded=0;orthogonalLoop=1;jettySize=auto;html=1;exitX=1;exitY=0.5;exitDx=0;exitDy=0;" edge="1" parent="1" source="HhZmvRGosrXur675bvMr-1">
          <mxGeometry relative="1" as="geometry">
            <mxPoint x="230" y="95" as="targetPoint" />
          </mxGeometry>
        </mxCell>
        <mxCell id="HhZmvRGosrXur675bvMr-4" value="1" style="edgeLabel;html=1;align=center;verticalAlign=middle;resizable=0;points=[];" vertex="1" connectable="0" parent="HhZmvRGosrXur675bvMr-3">
          <mxGeometry x="0.6354" y="4" relative="1" as="geometry">
            <mxPoint as="offset" />
          </mxGeometry>
        </mxCell>
        <mxCell id="HhZmvRGosrXur675bvMr-1" value="" style="swimlane;startSize=0;" vertex="1" parent="1">
          <mxGeometry x="-90" y="60" width="200" height="70" as="geometry" />
        </mxCell>
        <mxCell id="HhZmvRGosrXur675bvMr-2" value="departamento" style="text;html=1;align=center;verticalAlign=middle;resizable=0;points=[];autosize=1;strokeColor=none;fillColor=none;" vertex="1" parent="1">
          <mxGeometry x="-50" y="78" width="100" height="30" as="geometry" />
        </mxCell>
        <mxCell id="HhZmvRGosrXur675bvMr-6" style="edgeStyle=orthogonalEdgeStyle;rounded=0;orthogonalLoop=1;jettySize=auto;html=1;exitX=1;exitY=0.5;exitDx=0;exitDy=0;" edge="1" parent="1" source="HhZmvRGosrXur675bvMr-5">
          <mxGeometry relative="1" as="geometry">
            <mxPoint x="410" y="95" as="targetPoint" />
          </mxGeometry>
        </mxCell>
        <mxCell id="HhZmvRGosrXur675bvMr-5" value="E" style="rhombus;whiteSpace=wrap;html=1;" vertex="1" parent="1">
          <mxGeometry x="220" y="55" width="80" height="80" as="geometry" />
        </mxCell>
        <mxCell id="HhZmvRGosrXur675bvMr-14" style="edgeStyle=orthogonalEdgeStyle;rounded=0;orthogonalLoop=1;jettySize=auto;html=1;exitX=0.5;exitY=1;exitDx=0;exitDy=0;" edge="1" parent="1" source="HhZmvRGosrXur675bvMr-11" target="HhZmvRGosrXur675bvMr-15">
          <mxGeometry relative="1" as="geometry">
            <mxPoint x="510" y="250" as="targetPoint" />
          </mxGeometry>
        </mxCell>
        <mxCell id="HhZmvRGosrXur675bvMr-11" value="" style="swimlane;startSize=0;" vertex="1" parent="1">
          <mxGeometry x="410" y="60" width="200" height="70" as="geometry" />
        </mxCell>
        <mxCell id="HhZmvRGosrXur675bvMr-12" value="funcionario" style="text;html=1;align=center;verticalAlign=middle;resizable=0;points=[];autosize=1;strokeColor=none;fillColor=none;" vertex="1" parent="HhZmvRGosrXur675bvMr-11">
          <mxGeometry x="60" y="18" width="80" height="30" as="geometry" />
        </mxCell>
        <mxCell id="HhZmvRGosrXur675bvMr-13" value="n" style="text;html=1;align=center;verticalAlign=middle;resizable=0;points=[];autosize=1;strokeColor=none;fillColor=none;" vertex="1" parent="1">
          <mxGeometry x="375" y="68" width="30" height="30" as="geometry" />
        </mxCell>
        <mxCell id="HhZmvRGosrXur675bvMr-17" style="edgeStyle=orthogonalEdgeStyle;rounded=0;orthogonalLoop=1;jettySize=auto;html=1;exitX=0.5;exitY=1;exitDx=0;exitDy=0;" edge="1" parent="1" source="HhZmvRGosrXur675bvMr-15" target="HhZmvRGosrXur675bvMr-18">
          <mxGeometry relative="1" as="geometry">
            <mxPoint x="510" y="390" as="targetPoint" />
          </mxGeometry>
        </mxCell>
        <mxCell id="HhZmvRGosrXur675bvMr-15" value="P" style="rhombus;whiteSpace=wrap;html=1;" vertex="1" parent="1">
          <mxGeometry x="470" y="210" width="80" height="80" as="geometry" />
        </mxCell>
        <mxCell id="HhZmvRGosrXur675bvMr-16" value="1" style="text;html=1;align=center;verticalAlign=middle;resizable=0;points=[];autosize=1;strokeColor=none;fillColor=none;" vertex="1" parent="1">
          <mxGeometry x="485" y="158" width="30" height="30" as="geometry" />
        </mxCell>
        <mxCell id="HhZmvRGosrXur675bvMr-22" style="edgeStyle=orthogonalEdgeStyle;rounded=0;orthogonalLoop=1;jettySize=auto;html=1;exitX=0;exitY=0.5;exitDx=0;exitDy=0;" edge="1" parent="1" source="HhZmvRGosrXur675bvMr-18" target="HhZmvRGosrXur675bvMr-23">
          <mxGeometry relative="1" as="geometry">
            <mxPoint x="320" y="380" as="targetPoint" />
          </mxGeometry>
        </mxCell>
        <mxCell id="HhZmvRGosrXur675bvMr-18" value="" style="swimlane;startSize=0;" vertex="1" parent="1">
          <mxGeometry x="410" y="330" width="200" height="100" as="geometry" />
        </mxCell>
        <mxCell id="HhZmvRGosrXur675bvMr-19" value="projeto" style="text;html=1;align=center;verticalAlign=middle;resizable=0;points=[];autosize=1;strokeColor=none;fillColor=none;" vertex="1" parent="HhZmvRGosrXur675bvMr-18">
          <mxGeometry x="70" y="30" width="60" height="30" as="geometry" />
        </mxCell>
        <mxCell id="HhZmvRGosrXur675bvMr-21" value="n" style="text;html=1;align=center;verticalAlign=middle;resizable=0;points=[];autosize=1;strokeColor=none;fillColor=none;" vertex="1" parent="1">
          <mxGeometry x="465" y="288" width="30" height="30" as="geometry" />
        </mxCell>
        <mxCell id="HhZmvRGosrXur675bvMr-24" style="edgeStyle=orthogonalEdgeStyle;rounded=0;orthogonalLoop=1;jettySize=auto;html=1;" edge="1" parent="1" source="HhZmvRGosrXur675bvMr-23">
          <mxGeometry relative="1" as="geometry">
            <mxPoint x="150" y="380" as="targetPoint" />
          </mxGeometry>
        </mxCell>
        <mxCell id="HhZmvRGosrXur675bvMr-23" value="U" style="rhombus;whiteSpace=wrap;html=1;" vertex="1" parent="1">
          <mxGeometry x="250" y="340" width="80" height="80" as="geometry" />
        </mxCell>
        <mxCell id="HhZmvRGosrXur675bvMr-28" style="edgeStyle=orthogonalEdgeStyle;rounded=0;orthogonalLoop=1;jettySize=auto;html=1;exitX=0;exitY=0.5;exitDx=0;exitDy=0;" edge="1" parent="1" source="HhZmvRGosrXur675bvMr-26" target="HhZmvRGosrXur675bvMr-29">
          <mxGeometry relative="1" as="geometry">
            <mxPoint x="-110" y="370" as="targetPoint" />
          </mxGeometry>
        </mxCell>
        <mxCell id="HhZmvRGosrXur675bvMr-35" style="edgeStyle=orthogonalEdgeStyle;rounded=0;orthogonalLoop=1;jettySize=auto;html=1;" edge="1" parent="1" source="HhZmvRGosrXur675bvMr-26">
          <mxGeometry relative="1" as="geometry">
            <mxPoint x="50" y="620" as="targetPoint" />
          </mxGeometry>
        </mxCell>
        <mxCell id="HhZmvRGosrXur675bvMr-26" value="" style="swimlane;startSize=0;" vertex="1" parent="1">
          <mxGeometry x="-50" y="310" width="200" height="120" as="geometry" />
        </mxCell>
        <mxCell id="HhZmvRGosrXur675bvMr-27" value="peças" style="text;html=1;align=center;verticalAlign=middle;resizable=0;points=[];autosize=1;strokeColor=none;fillColor=none;" vertex="1" parent="HhZmvRGosrXur675bvMr-26">
          <mxGeometry x="70" y="55" width="60" height="30" as="geometry" />
        </mxCell>
        <mxCell id="HhZmvRGosrXur675bvMr-31" style="edgeStyle=orthogonalEdgeStyle;rounded=0;orthogonalLoop=1;jettySize=auto;html=1;exitX=0;exitY=0.5;exitDx=0;exitDy=0;" edge="1" parent="1" source="HhZmvRGosrXur675bvMr-29">
          <mxGeometry relative="1" as="geometry">
            <mxPoint x="-290" y="370" as="targetPoint" />
          </mxGeometry>
        </mxCell>
        <mxCell id="HhZmvRGosrXur675bvMr-29" value="c" style="rhombus;whiteSpace=wrap;html=1;" vertex="1" parent="1">
          <mxGeometry x="-200" y="330" width="80" height="80" as="geometry" />
        </mxCell>
        <mxCell id="HhZmvRGosrXur675bvMr-30" value="n" style="text;html=1;align=center;verticalAlign=middle;resizable=0;points=[];autosize=1;strokeColor=none;fillColor=none;" vertex="1" parent="1">
          <mxGeometry x="-95" y="338" width="30" height="30" as="geometry" />
        </mxCell>
        <mxCell id="HhZmvRGosrXur675bvMr-32" value="1" style="text;html=1;align=center;verticalAlign=middle;resizable=0;points=[];autosize=1;strokeColor=none;fillColor=none;" vertex="1" parent="1">
          <mxGeometry x="-255" y="338" width="30" height="30" as="geometry" />
        </mxCell>
        <mxCell id="HhZmvRGosrXur675bvMr-33" value="" style="swimlane;startSize=0;" vertex="1" parent="1">
          <mxGeometry x="-440" y="310" width="150" height="130" as="geometry" />
        </mxCell>
        <mxCell id="HhZmvRGosrXur675bvMr-34" value="depósito" style="text;html=1;align=center;verticalAlign=middle;resizable=0;points=[];autosize=1;strokeColor=none;fillColor=none;" vertex="1" parent="1">
          <mxGeometry x="-405" y="358" width="70" height="30" as="geometry" />
        </mxCell>
        <mxCell id="HhZmvRGosrXur675bvMr-36" value="n" style="text;html=1;align=center;verticalAlign=middle;resizable=0;points=[];autosize=1;strokeColor=none;fillColor=none;" vertex="1" parent="1">
          <mxGeometry x="55" y="528" width="30" height="30" as="geometry" />
        </mxCell>
        <mxCell id="HhZmvRGosrXur675bvMr-38" style="edgeStyle=orthogonalEdgeStyle;rounded=0;orthogonalLoop=1;jettySize=auto;html=1;exitX=1;exitY=0.5;exitDx=0;exitDy=0;" edge="1" parent="1" source="HhZmvRGosrXur675bvMr-37">
          <mxGeometry relative="1" as="geometry">
            <mxPoint x="260" y="650" as="targetPoint" />
          </mxGeometry>
        </mxCell>
        <mxCell id="HhZmvRGosrXur675bvMr-37" value="u" style="rhombus;whiteSpace=wrap;html=1;" vertex="1" parent="1">
          <mxGeometry x="10" y="610" width="80" height="80" as="geometry" />
        </mxCell>
        <mxCell id="HhZmvRGosrXur675bvMr-39" value="1" style="text;html=1;align=center;verticalAlign=middle;resizable=0;points=[];autosize=1;strokeColor=none;fillColor=none;" vertex="1" parent="1">
          <mxGeometry x="165" y="608" width="30" height="30" as="geometry" />
        </mxCell>
        <mxCell id="HhZmvRGosrXur675bvMr-48" value="fornecedores" style="swimlane;whiteSpace=wrap;html=1;" vertex="1" parent="1">
          <mxGeometry x="260" y="550" width="200" height="200" as="geometry" />
        </mxCell>
        <mxCell id="HhZmvRGosrXur675bvMr-49" value="data de inicio" style="text;html=1;align=center;verticalAlign=middle;resizable=0;points=[];autosize=1;strokeColor=none;fillColor=none;" vertex="1" parent="HhZmvRGosrXur675bvMr-48">
          <mxGeometry x="60" y="85" width="90" height="30" as="geometry" />
        </mxCell>
      </root>
    </mxGraphModel>
  </diagram>
</mxfile>
